/* XPM */
static const char *conble[] = {
/* columns rows colors chars-per-pixel */
"32 32 11 1",
"  c #010101",
". c #312121",
"X c #2A2862",
"o c #402C6A",
"O c #4A3E80",
"+ c #6246B6",
"@ c #637BBC",
"# c #9C8C84",
"$ c #BDADA5",
"% c #F7E7DE",
"& c None",
/* pixels */
"&&&&&&&&&&&&&&&&&&&&&&&&&&&&&&&&",
"&&&&&&&&&&&&&&&&&&&&&&&&&&&&&&&&",
"&&&&&&&&&&&&&&&&&&&&&&&&&&&&&&&&",
"&&&&&&&&&&&&&&&&&&&&&&&&&&&&&&&&",
"&&&&&&&&&&&&&&&&&&XXXXXXXXXXX&&&",
"&&&&&&&&&&&&&XXXXOOXXOXOXXXoXX&&",
"&&&&&&&&&&XXXOOOOXOoooXOXoXXXXX&",
"&&&&&&&XXXOOXXoOXooXoXXXXXXoXXX&",
"&&&&&XOOOOoOoXooooOOO@$@XXX.oXX&",
"&&&XXOXoOXXooOOOOOOO$%%%XXX oXX&",
"&&XOoOXXooOOOOOOOOOO@%%@oXX oXX&",
"&XOOXXooOOOOOOOOOOOOOOOoXoX oXX&",
"&XOXooOOOOOOOOOOOOOOOOOOoXXXXXX&",
"&XXoOO++OOOOOOOOOOOOOOOOoXX   X&",
"&XO+OO++OOOOOOOOOOOOOOOOoX #  X&",
"&X++OOOOOOOOOOOOOOOOOOOoX #$ .&&",
"&X++OOOOOOOOOOOOOOOOOOo  #$$ X&&",
"&X+++OOOOOOOOOOOOOOOOOX #$$ .X&&",
"&X+++OOOOOOOOOOOOOOOOo  $$$ X&&&",
"&X+++OOOOOOOOOOOOOOOOX #$$# X&&&",
"&XO+++OOOOOOOOOOOOOOOX #$# .X&&&",
"&&XO+++OOOOOOOOOOOOOo. ### X&&&&",
"&&&XoOO++OOOOOOOOOOOX ###  X&&&&",
"&&&&&XoO+++O+OOOOXXXX ## .X&&&&&",
"&&&&&&&XXoOOOXXXXXXXX    X&&&&&&",
"&&&&&&&&&XXXXXXXXX.  XXXX&&&&&&&",
"&&&&&&&&&&XXXXXXXXXXXX&&&&&&&&&&",
"&&&&&&&&&&&&&XXXXX&&&&&&&&&&&&&&",
"&&&&&&&&&&&&&&&&&&&&&&&&&&&&&&&&",
"&&&&&&&&&&&&&&&&&&&&&&&&&&&&&&&&",
"&&&&&&&&&&&&&&&&&&&&&&&&&&&&&&&&",
"&&&&&&&&&&&&&&&&&&&&&&&&&&&&&&&&"
};
