/* XPM */
static char *unagi_blue[] = {
/* columns rows colors chars-per-pixel */
"32 32 12 1",
"  c #010101",
". c #312121",
"X c #4A3931",
"o c #63524A",
"O c #4A63A0",
"+ c #73AAD4",
"@ c #639CF7",
"# c #9C8C84",
"$ c #D6C6BD",
"% c #BEE8FF",
"& c #FFFEFD",
"* c None",
/* pixels */
"********************************",
"********************************",
"********************************",
"********************************",
"****                          **",
"**** &&%%%%%%%%%%%%%%%%%%%%%+ **",
"**** oX..+++++++++++++++++++O **",
"****o. o..@@&&&&&&&&&&&&&&&+O **",
"***X.  .o.@@&&&&&&&&&&&&&@&+O **",
"***o. Xo#.X&&&&&&&&&&&&&@@@+O .*",
"***.. Xo#..&&&&&&&&&&&&@@@@+O .*",
"**X.  .o$..@@@@@@@@&&&@@@&@+O .*",
"**o.   X$..@@@@@@@@@&@@@&@&+O .*",
"**o.   X$..&&&&&&&@@@@@&@&@+O .*",
"**o.   X#..@@@@@@@&@@@&@&&&+O .*",
"**o.   .o..&&&&&&&@&@&@&&&&+O .*",
"**o.   .o..&&&&&&&&@&@&&&&&+O .*",
"**o.   .X.++++++++++++++++++O .*",
"*oX..  .X. .o+++++++++++++++O .*",
"o....  .X.  oX+++++++++++++OO .*",
".. X.  .o.+ ..+++++++++++++   **",
". *Xo. .#..++++++++++++++++ #.**",
"****o.  o$..                o.**",
"****X.. .o$o..******......o$.***",
"*****o.  .#$o............Xo#.***",
"*****Xo.  .o##$#oooXX...Xo$.****",
"******oo.     ......... o$..****",
"*******Xo...        ..oo#..*****",
"*********Xoo.....XXooo#..*******",
"************Xoo........*********",
"********************************",
"********************************"
};
